<svg width="1163" height="1028" viewBox="0 0 1163 1028" fill="none" xmlns="http://www.w3.org/2000/svg">
<path d="M116.5 99.7852H152.5V927.785H116.5V99.7852ZM332.5 99.7852H368.5V747.785H656.5V783.785H368.5V819.785H656.5V855.785H368.5V891.785H656.5V927.785H332.5V99.7852ZM260.5 99.7852H296.5V927.785H260.5V99.7852ZM188.5 99.7852H224.5V927.785H188.5V99.7852Z" fill="white"/>
<path d="M825.823 425.944C833.725 455.436 835.742 486.195 831.756 516.466C827.771 546.738 817.862 575.927 802.596 602.369C787.33 628.811 767.005 651.987 742.782 670.574C718.559 689.161 690.913 702.795 661.421 710.697C631.929 718.599 601.169 720.615 570.898 716.63C540.627 712.645 511.437 702.736 484.995 687.47C458.554 672.204 435.378 651.879 416.791 627.656C398.204 603.433 384.57 575.787 376.668 546.295C368.765 516.803 366.749 486.043 370.734 455.772C374.72 425.501 384.628 396.311 399.894 369.869C415.161 343.427 435.485 320.251 459.708 301.664C483.931 283.078 511.578 269.444 541.07 261.541C570.562 253.639 601.322 251.623 631.593 255.608C661.864 259.593 691.054 269.502 717.495 284.768C743.937 300.034 767.113 320.359 785.7 344.582C804.287 368.805 817.921 396.452 825.823 425.944L825.823 425.944Z" stroke="white" stroke-width="67"/>
<path d="M1047.46 750.452C1077.45 710.815 1069.63 654.369 1029.99 624.377C990.354 594.385 933.908 602.204 903.916 641.841L1047.46 750.452ZM650.909 674.507L668.01 710.853L830.882 634.219L813.781 597.873L650.909 674.507ZM668.01 710.853C739.372 862.521 946.316 884.118 1047.46 750.452L903.916 641.841C884.449 667.568 844.618 663.411 830.882 634.219L668.01 710.853Z" fill="white"/>
<circle cx="601.245" cy="486.119" r="171" transform="rotate(-15 601.245 486.119)" fill="white" stroke="black" stroke-width="123"/>
<path d="M732.345 636.19L749.446 672.536C791.995 762.966 915.382 775.843 975.686 696.146V696.146" stroke="black" stroke-width="123" stroke-linecap="round"/>
</svg>
